<svg width="16" height="16" viewBox="0 0 16 16" fill="none" xmlns="http://www.w3.org/2000/svg">
<path d="M8.19 0.0498047C10.249 0.0551029 12.2217 0.877437 13.6748 2.33618C15.128 3.79493 15.9427 5.7708 15.94 7.8298C15.9331 9.8408 15.1448 11.7704 13.7416 13.2109C12.3383 14.6514 10.4301 15.4901 8.42 15.5498H8.17C6.15895 15.5456 4.22829 14.7598 2.78588 13.3584C1.34347 11.9571 0.502276 10.0499 0.440002 8.0398V7.7898C0.442652 5.73611 1.26034 3.76744 2.71346 2.31619C4.16658 0.864946 6.13631 0.049803 8.19 0.0498047ZM10.14 8.5498H6.24C6.39 11.4498 7.41 13.8898 8.12 14.0498H8.19C8.87 14.0498 9.91 11.6798 10.12 8.81981L10.14 8.5498ZM14.4 8.5498H11.64C11.55 10.5098 11.11 12.3298 10.46 13.6298C11.4739 13.2334 12.367 12.5793 13.0509 11.7323C13.7348 10.8853 14.1861 9.87451 14.36 8.7998L14.4 8.5498ZM4.73 8.5498H1.99C2.12602 9.67369 2.56426 10.7397 3.25807 11.6342C3.95189 12.5288 4.8753 13.2184 5.93 13.6298C5.24294 12.1529 4.84899 10.5568 4.77 8.9298L4.74 8.5498H4.73ZM5.93 1.9698L5.81 2.0198C4.78267 2.44291 3.88645 3.13181 3.21336 4.01578C2.54028 4.89975 2.11459 5.94693 1.98 7.0498H4.73C4.82 5.2198 5.21 3.5098 5.79 2.2398L5.93 1.9698ZM8.18 1.5498C7.48 1.5498 6.4 4.0598 6.24 7.0498H10.14C9.99 4.1498 8.96 1.7098 8.25 1.5498H8.18ZM10.46 1.9798L10.49 2.0298C11.2056 3.60927 11.5966 5.31635 11.64 7.0498H14.39C14.2511 5.92951 13.8128 4.86738 13.1212 3.97516C12.4296 3.08295 11.5103 2.39365 10.46 1.9798Z" fill="#222222"/>
</svg>
